<svg xmlns="http://www.w3.org/2000/svg" xmlns:xlink="http://www.w3.org/1999/xlink" width="80" zoomAndPan="magnify" viewBox="0 0 60 60" height="80" preserveAspectRatio="xMidYMid meet" version="1.0"><path fill="#ffffff" d="M 30 60 C 13.457031 60 0 46.542969 0 30 C 0 13.457031 13.457031 0 30 0 C 46.542969 0 60 13.457031 60 30 C 60 46.542969 46.542969 60 30 60 Z M 30 1.835938 C 14.472656 1.835938 1.835938 14.472656 1.835938 30 C 1.835938 45.527344 14.472656 58.164062 30 58.164062 C 45.527344 58.164062 58.164062 45.527344 58.164062 30 C 58.164062 14.472656 45.527344 1.835938 30 1.835938 Z M 45.359375 21.304688 C 43.617188 20.160156 41.863281 18.714844 39.996094 17.628906 C 35.828125 16.609375 31.582031 15.585938 27.480469 14.582031 C 23.761719 13.675781 20.054688 12.773438 16.335938 11.871094 C 15.871094 11.753906 15.441406 11.582031 14.90625 11.644531 C 14.527344 11.675781 14.242188 12.105469 14.164062 12.386719 C 14.164062 12.386719 14.164062 12.78125 14.164062 12.78125 C 18.363281 24.566406 22.519531 36.019531 26.734375 47.765625 C 26.84375 48.109375 27.164062 48.332031 27.558594 48.367188 L 27.644531 48.367188 C 28.015625 48.367188 28.34375 48.183594 28.507812 47.894531 C 33.96875 39.9375 40.335938 30.617188 45.765625 22.742188 C 45.765625 22.742188 45.824219 22.652344 45.824219 22.652344 C 45.835938 22.277344 45.90625 21.683594 45.359375 21.304688 M 37.371094 24.929688 C 35.769531 25.761719 34.136719 26.625 32.492188 27.476562 C 34.675781 25.136719 36.835938 22.8125 39.03125 20.460938 C 39.234375 20.207031 39.496094 19.980469 39.722656 19.730469 C 40.832031 20.488281 41.886719 21.25 42.992188 22.011719 C 41.097656 22.972656 39.207031 23.964844 37.371094 24.929688 M 33.257812 24.515625 C 32.027344 25.847656 30.753906 27.21875 29.488281 28.570312 C 25.910156 24.226562 22.355469 19.960938 18.789062 15.667969 C 18.367188 15.183594 17.980469 14.675781 17.566406 14.1875 C 19.460938 14.675781 21.320312 15.082031 23.21875 15.5625 C 28.210938 16.777344 33.214844 17.992188 38.207031 19.203125 C 36.546875 20.976562 34.875 22.777344 33.257812 24.515625 M 28.925781 41.292969 C 29.296875 37.648438 29.710938 34.03125 30.046875 30.378906 C 32.289062 29.273438 34.484375 28.058594 36.71875 26.925781 C 38.707031 25.890625 40.746094 24.824219 42.769531 23.765625 C 39.320312 28.753906 36.023438 33.617188 32.585938 38.597656 C 31.261719 40.546875 29.945312 42.425781 28.625 44.382812 C 28.710938 43.347656 28.816406 42.308594 28.925781 41.292969 M 16.929688 16.21875 C 16.816406 15.90625 16.695312 15.589844 16.59375 15.289062 C 20.660156 20.1875 24.613281 24.964844 28.667969 29.816406 C 28.132812 34.78125 27.628906 39.671875 27.121094 44.5625 C 23.722656 35.117188 20.324219 25.667969 16.929688 16.21875 " fill-opacity="1" fill-rule="nonzero"/></svg>