<svg xmlns="http://www.w3.org/2000/svg" xmlns:xlink="http://www.w3.org/1999/xlink" width="80" zoomAndPan="magnify" viewBox="0 0 60 60" height="80" preserveAspectRatio="xMidYMid meet" version="1.0"><defs><clipPath id="f3ee2555be"><path d="M 1.089844 0 L 58.839844 0 L 58.839844 60 L 1.089844 60 Z M 1.089844 0 " clip-rule="nonzero"/></clipPath></defs><g clip-path="url(#f3ee2555be)"><path fill="#ffffff" d="M 58.304688 13.054688 C 58.660156 12.851562 58.835938 12.542969 58.835938 12.132812 L 58.835938 4.839844 C 58.835938 4.429688 58.660156 4.125 58.304688 3.917969 L 51.996094 0.273438 C 51.640625 0.0664062 51.285156 0.0664062 50.929688 0.273438 L 44.625 3.917969 C 44.269531 4.125 44.09375 4.429688 44.089844 4.839844 L 44.089844 7.417969 L 15.839844 7.417969 L 15.839844 4.839844 C 15.839844 4.429688 15.660156 4.125 15.308594 3.917969 L 9 0.273438 C 8.644531 0.0664062 8.289062 0.0664062 7.933594 0.273438 L 1.628906 3.917969 C 1.273438 4.125 1.09375 4.429688 1.09375 4.839844 L 1.09375 12.132812 C 1.09375 12.542969 1.273438 12.851562 1.628906 13.054688 L 7.402344 16.394531 L 7.402344 43.621094 L 1.628906 46.957031 C 1.273438 47.164062 1.09375 47.472656 1.09375 47.882812 L 1.09375 55.171875 C 1.09375 55.582031 1.273438 55.890625 1.628906 56.097656 L 7.933594 59.742188 C 8.289062 59.945312 8.644531 59.945312 9 59.742188 L 15.308594 56.097656 C 15.664062 55.890625 15.839844 55.582031 15.839844 55.171875 L 15.839844 52.59375 L 19.046875 52.59375 C 19.1875 52.59375 19.324219 52.566406 19.453125 52.511719 C 19.582031 52.457031 19.699219 52.382812 19.800781 52.28125 C 19.898438 52.179688 19.976562 52.066406 20.03125 51.933594 C 20.085938 51.804688 20.113281 51.667969 20.113281 51.527344 C 20.113281 51.386719 20.085938 51.25 20.03125 51.117188 C 19.976562 50.988281 19.898438 50.871094 19.800781 50.773438 C 19.699219 50.671875 19.582031 50.59375 19.453125 50.539062 C 19.324219 50.488281 19.1875 50.460938 19.046875 50.460938 L 15.839844 50.460938 L 15.839844 47.882812 C 15.839844 47.472656 15.664062 47.164062 15.308594 46.957031 L 9.535156 43.621094 L 9.535156 16.394531 L 15.308594 13.054688 C 15.664062 12.851562 15.839844 12.542969 15.839844 12.132812 L 15.839844 9.554688 L 44.089844 9.554688 L 44.089844 12.132812 C 44.089844 12.542969 44.269531 12.851562 44.625 13.054688 L 50.398438 16.394531 L 50.398438 43.621094 L 44.625 46.957031 C 44.269531 47.164062 44.089844 47.472656 44.089844 47.882812 L 44.089844 50.460938 L 32.019531 50.460938 C 31.878906 50.460938 31.742188 50.488281 31.613281 50.539062 C 31.480469 50.59375 31.367188 50.671875 31.265625 50.773438 C 31.167969 50.871094 31.089844 50.988281 31.035156 51.117188 C 30.980469 51.25 30.953125 51.386719 30.953125 51.527344 C 30.953125 51.667969 30.980469 51.804688 31.035156 51.933594 C 31.089844 52.066406 31.167969 52.179688 31.265625 52.28125 C 31.367188 52.382812 31.480469 52.457031 31.613281 52.511719 C 31.742188 52.566406 31.878906 52.59375 32.019531 52.59375 L 44.089844 52.59375 L 44.089844 55.171875 C 44.089844 55.582031 44.269531 55.890625 44.625 56.097656 L 50.929688 59.742188 C 51.285156 59.945312 51.640625 59.945312 51.996094 59.742188 L 58.304688 56.097656 C 58.660156 55.890625 58.835938 55.582031 58.835938 55.171875 L 58.835938 47.882812 C 58.835938 47.472656 58.660156 47.164062 58.304688 46.957031 L 52.53125 43.621094 L 52.53125 16.394531 Z M 8.46875 2.429688 L 12.644531 4.839844 L 8.46875 7.253906 L 4.292969 4.839844 Z M 8.46875 50.292969 L 4.292969 47.882812 L 8.46875 45.46875 L 12.644531 47.882812 Z M 3.226562 6.6875 L 7.359375 9.078125 L 7.359375 13.90625 L 3.226562 11.515625 Z M 3.226562 49.730469 L 7.359375 52.117188 L 7.359375 56.945312 L 3.226562 54.554688 Z M 13.710938 54.554688 L 9.492188 56.992188 L 9.492188 52.167969 L 13.710938 49.730469 Z M 13.710938 11.515625 L 9.492188 13.953125 L 9.492188 9.128906 L 13.710938 6.6875 Z M 51.464844 50.292969 L 47.289062 47.882812 L 51.464844 45.46875 L 55.640625 47.882812 Z M 52.488281 13.953125 L 52.488281 9.128906 L 56.707031 6.6875 L 56.707031 11.515625 Z M 51.464844 2.429688 L 55.640625 4.839844 L 51.464844 7.253906 L 47.289062 4.839844 Z M 46.222656 6.6875 L 50.355469 9.078125 L 50.355469 13.90625 L 46.222656 11.515625 Z M 46.222656 49.730469 L 50.355469 52.117188 L 50.355469 56.945312 L 46.222656 54.554688 Z M 52.488281 56.992188 L 52.488281 52.167969 L 56.707031 49.730469 L 56.707031 54.554688 Z M 29.175781 51.457031 C 29.175781 51.628906 29.140625 51.789062 29.078125 51.945312 C 29.011719 52.101562 28.921875 52.238281 28.800781 52.359375 C 28.683594 52.476562 28.542969 52.570312 28.386719 52.632812 C 28.234375 52.699219 28.070312 52.730469 27.902344 52.730469 C 27.734375 52.730469 27.570312 52.699219 27.414062 52.632812 C 27.261719 52.566406 27.121094 52.476562 27.003906 52.355469 C 26.882812 52.238281 26.792969 52.101562 26.726562 51.945312 C 26.664062 51.789062 26.632812 51.625 26.632812 51.457031 C 26.632812 51.289062 26.664062 51.125 26.726562 50.96875 C 26.792969 50.8125 26.882812 50.675781 27.003906 50.558594 C 27.121094 50.4375 27.261719 50.347656 27.417969 50.28125 C 27.570312 50.21875 27.734375 50.183594 27.902344 50.183594 C 28.070312 50.183594 28.234375 50.21875 28.390625 50.28125 C 28.542969 50.347656 28.683594 50.4375 28.800781 50.558594 C 28.921875 50.675781 29.011719 50.816406 29.078125 50.972656 C 29.140625 51.128906 29.175781 51.289062 29.175781 51.457031 Z M 24.433594 51.457031 C 24.433594 51.628906 24.402344 51.789062 24.335938 51.945312 C 24.273438 52.101562 24.179688 52.238281 24.058594 52.359375 C 23.941406 52.476562 23.804688 52.570312 23.648438 52.632812 C 23.492188 52.699219 23.328125 52.730469 23.160156 52.730469 C 22.992188 52.730469 22.832031 52.699219 22.675781 52.632812 C 22.519531 52.566406 22.382812 52.476562 22.261719 52.355469 C 22.144531 52.238281 22.050781 52.101562 21.988281 51.945312 C 21.921875 51.789062 21.890625 51.625 21.890625 51.457031 C 21.890625 51.289062 21.921875 51.125 21.988281 50.96875 C 22.050781 50.8125 22.144531 50.675781 22.261719 50.558594 C 22.382812 50.4375 22.519531 50.347656 22.675781 50.28125 C 22.832031 50.21875 22.992188 50.183594 23.160156 50.183594 C 23.332031 50.183594 23.492188 50.21875 23.648438 50.28125 C 23.804688 50.347656 23.941406 50.4375 24.0625 50.558594 C 24.179688 50.675781 24.273438 50.816406 24.335938 50.972656 C 24.402344 51.128906 24.433594 51.289062 24.433594 51.457031 Z M 29.964844 29 L 41.503906 22.332031 L 30.5 15.96875 C 30.144531 15.765625 29.789062 15.765625 29.433594 15.96875 L 18.425781 22.332031 Z M 28.898438 30.847656 L 17.359375 24.179688 L 17.359375 36.902344 C 17.359375 37.3125 17.539062 37.621094 17.894531 37.824219 L 28.898438 44.1875 Z M 31.03125 30.847656 L 31.03125 44.1875 L 42.039062 37.824219 C 42.394531 37.621094 42.570312 37.3125 42.570312 36.902344 L 42.570312 24.179688 Z M 31.03125 30.847656 " fill-opacity="1" fill-rule="nonzero"/></g></svg>