<svg xmlns="http://www.w3.org/2000/svg" xmlns:xlink="http://www.w3.org/1999/xlink" width="80" zoomAndPan="magnify" viewBox="0 0 60 60" height="80" preserveAspectRatio="xMidYMid meet" version="1.0"><defs><clipPath id="34f5f221de"><path d="M 25 7.011719 L 32 7.011719 L 32 29 L 25 29 Z M 25 7.011719 " clip-rule="nonzero"/></clipPath><clipPath id="eaeaa48e79"><path d="M 34 33 L 41 33 L 41 52.761719 L 34 52.761719 Z M 34 33 " clip-rule="nonzero"/></clipPath></defs><path fill="#ffffff" d="M 9.480469 34.710938 L 7.320312 36.070312 L 7.320312 40.359375 L 9.480469 40.359375 L 9.480469 43.40625 L 10.988281 43.40625 L 10.988281 40.359375 L 13.148438 40.359375 L 13.148438 32.390625 L 10.988281 33.753906 Z M 9.480469 34.710938 " fill-opacity="1" fill-rule="nonzero"/><path fill="#ffffff" d="M 10.988281 27.71875 L 13.148438 26.347656 L 13.148438 11.566406 L 10.988281 11.566406 L 10.988281 9.347656 L 9.480469 9.347656 L 9.480469 11.566406 L 7.320312 11.566406 L 7.320312 30.035156 L 9.480469 28.675781 Z M 10.988281 27.71875 " fill-opacity="1" fill-rule="nonzero"/><path fill="#ffffff" d="M 17.257812 20.226562 L 21.558594 20.226562 L 21.558594 22.671875 L 22.300781 23.113281 L 22.300781 19.464844 L 20.140625 19.464844 L 20.140625 13.765625 L 18.625 13.765625 L 18.625 19.464844 L 16.476562 19.464844 L 16.476562 24.246094 L 17.257812 23.753906 Z M 17.257812 20.226562 " fill-opacity="1" fill-rule="nonzero"/><path fill="#ffffff" d="M 21.558594 34.265625 L 17.257812 34.265625 L 17.257812 29.789062 L 16.476562 30.292969 L 16.476562 34.976562 L 18.625 34.976562 L 18.625 37.027344 L 20.140625 37.027344 L 20.140625 34.976562 L 22.300781 34.976562 L 22.300781 29.078125 L 21.558594 28.625 Z M 21.558594 34.265625 " fill-opacity="1" fill-rule="nonzero"/><path fill="#ffffff" d="M 27.78125 32.390625 L 25.628906 31.089844 L 25.628906 36.058594 L 27.78125 36.058594 L 27.78125 36.828125 L 29.296875 36.828125 L 29.296875 36.058594 L 31.457031 36.058594 L 31.457031 34.609375 L 29.296875 33.308594 Z M 27.78125 32.390625 " fill-opacity="1" fill-rule="nonzero"/><g clip-path="url(#34f5f221de)"><path fill="#ffffff" d="M 29.296875 27.34375 L 31.457031 28.644531 L 31.457031 10.828125 L 29.296875 10.828125 L 29.296875 6.992188 L 27.78125 6.992188 L 27.78125 10.828125 L 25.628906 10.828125 L 25.628906 25.125 L 27.78125 26.425781 Z M 29.296875 27.34375 " fill-opacity="1" fill-rule="nonzero"/></g><path fill="#ffffff" d="M 35.609375 31.089844 L 35.609375 26.484375 L 39.777344 26.484375 L 39.777344 27.382812 L 40.601562 26.652344 L 40.601562 25.292969 L 38.453125 25.292969 L 38.453125 22.945312 L 36.933594 22.945312 L 36.933594 25.292969 L 34.777344 25.292969 L 34.777344 30.65625 L 35.558594 31.128906 Z M 35.609375 31.089844 " fill-opacity="1" fill-rule="nonzero"/><g clip-path="url(#eaeaa48e79)"><path fill="#ffffff" d="M 39.777344 45.773438 L 35.609375 45.773438 L 35.609375 37.125 L 34.777344 36.621094 L 34.777344 46.964844 L 36.933594 46.964844 L 36.933594 52.78125 L 38.453125 52.78125 L 38.453125 46.964844 L 40.601562 46.964844 L 40.601562 33.476562 L 39.777344 34.214844 Z M 39.777344 45.773438 " fill-opacity="1" fill-rule="nonzero"/></g><path fill="#ffffff" d="M 47.605469 20.453125 L 49.765625 18.539062 L 49.765625 15.648438 L 49.546875 15.511719 L 47.566406 15.511719 L 47.566406 10.355469 L 46.089844 10.355469 L 46.089844 15.5 L 43.96875 15.5 L 43.96875 23.695312 L 46.128906 21.78125 Z M 47.605469 20.453125 " fill-opacity="1" fill-rule="nonzero"/><path fill="#ffffff" d="M 46.089844 28.617188 L 43.929688 30.527344 L 43.929688 38.070312 L 46.089844 38.070312 L 46.089844 40.199219 L 47.597656 40.199219 L 47.597656 38.070312 L 49.757812 38.070312 L 49.757812 25.363281 L 47.597656 27.273438 Z M 46.089844 28.617188 " fill-opacity="1" fill-rule="nonzero"/><path fill="#ffffff" d="M 58.207031 13.046875 L 56.75 12.859375 L 51.152344 12.140625 C 50.984375 12.117188 50.820312 12.128906 50.65625 12.171875 C 50.492188 12.21875 50.34375 12.292969 50.207031 12.394531 C 50.074219 12.496094 49.964844 12.621094 49.878906 12.769531 C 49.796875 12.914062 49.742188 13.070312 49.722656 13.238281 C 49.699219 13.40625 49.710938 13.570312 49.753906 13.734375 C 49.800781 13.898438 49.875 14.046875 49.976562 14.179688 C 50.082031 14.3125 50.207031 14.421875 50.355469 14.503906 C 50.5 14.589844 50.660156 14.640625 50.828125 14.664062 L 53.679688 15.027344 L 55.363281 15.246094 L 54.105469 16.378906 L 49.757812 20.234375 L 47.597656 22.148438 L 46.082031 23.488281 L 43.96875 25.410156 L 40.640625 28.367188 L 39.820312 29.097656 L 38.492188 30.28125 L 36.933594 31.613281 L 35.695312 32.707031 L 35.597656 32.648438 L 34.777344 32.144531 L 31.445312 30.171875 L 29.285156 28.871094 L 27.78125 27.914062 L 25.621094 26.613281 L 22.292969 24.640625 L 21.546875 24.199219 L 20.242188 23.410156 L 20.121094 23.480469 L 18.605469 24.464844 L 17.21875 25.261719 L 16.4375 25.757812 L 13.105469 27.855469 L 10.945312 29.21875 L 9.429688 30.203125 L 7.3125 31.542969 L 0.988281 35.546875 C 0.847656 35.636719 0.726562 35.75 0.628906 35.890625 C 0.53125 36.027344 0.464844 36.179688 0.425781 36.34375 C 0.390625 36.507812 0.386719 36.671875 0.414062 36.839844 C 0.441406 37.003906 0.503906 37.160156 0.59375 37.300781 C 0.683594 37.445312 0.796875 37.566406 0.9375 37.660156 C 1.074219 37.757812 1.226562 37.824219 1.394531 37.863281 C 1.558594 37.898438 1.726562 37.902344 1.890625 37.875 C 2.058594 37.847656 2.214844 37.785156 2.355469 37.695312 L 7.3125 34.5625 L 9.472656 33.199219 L 10.988281 32.214844 L 13.148438 30.875 L 16.476562 28.773438 L 17.257812 28.28125 L 18.625 27.414062 L 20.140625 26.425781 L 20.289062 26.339844 L 21.570312 27.105469 L 22.3125 27.550781 L 25.640625 29.523438 L 27.78125 30.875 L 29.296875 31.789062 L 31.457031 33.09375 L 34.785156 35.0625 L 35.609375 35.566406 L 35.996094 35.804688 L 36.984375 34.964844 L 38.492188 33.625 L 39.820312 32.441406 L 40.640625 31.710938 L 43.96875 28.753906 L 46.089844 26.929688 L 47.605469 25.589844 L 49.765625 23.675781 L 55.214844 18.835938 L 56.671875 17.542969 L 56.425781 19.515625 L 56.15625 21.59375 C 56.136719 21.761719 56.148438 21.929688 56.191406 22.089844 C 56.234375 22.253906 56.308594 22.402344 56.414062 22.535156 C 56.515625 22.667969 56.640625 22.777344 56.789062 22.863281 C 56.9375 22.945312 57.09375 23 57.261719 23.019531 C 57.429688 23.042969 57.59375 23.03125 57.757812 22.984375 C 57.921875 22.941406 58.070312 22.867188 58.207031 22.765625 C 58.339844 22.664062 58.449219 22.539062 58.535156 22.390625 C 58.617188 22.246094 58.671875 22.089844 58.691406 21.921875 L 59.355469 16.734375 L 59.613281 14.761719 L 59.824219 13.253906 Z M 58.207031 13.046875 " fill-opacity="1" fill-rule="nonzero"/></svg>