<svg xmlns="http://www.w3.org/2000/svg" xmlns:xlink="http://www.w3.org/1999/xlink" width="80" zoomAndPan="magnify" viewBox="0 0 60 60" height="80" preserveAspectRatio="xMidYMid meet" version="1.0"><defs><clipPath id="d0fedf2199"><path d="M 15.210938 0 L 42.960938 0 L 42.960938 58.5 L 15.210938 58.5 Z M 15.210938 0 " clip-rule="nonzero"/></clipPath><clipPath id="02b7cea51d"><path d="M 8.398438 8.398438 L 51.898438 8.398438 L 51.898438 51.898438 L 8.398438 51.898438 Z M 8.398438 8.398438 " clip-rule="nonzero"/></clipPath></defs><g clip-path="url(#d0fedf2199)"><path fill="#ffffff" d="M 28.328125 26.300781 L 42.703125 0.277344 L 15.476562 32.199219 L 29.851562 32.199219 L 15.476562 58.226562 L 42.703125 26.300781 L 28.328125 26.300781 " fill-opacity="1" fill-rule="nonzero"/><path fill="#ffffff" d="M 28.328125 26.300781 L 28.527344 26.414062 L 42.90625 0.390625 C 42.960938 0.285156 42.933594 0.152344 42.835938 0.0820312 C 42.738281 0.015625 42.605469 0.03125 42.527344 0.121094 L 15.300781 32.046875 C 15.242188 32.117188 15.226562 32.214844 15.265625 32.296875 C 15.304688 32.382812 15.386719 32.433594 15.476562 32.433594 L 29.457031 32.433594 L 15.273438 58.109375 C 15.214844 58.214844 15.246094 58.347656 15.34375 58.417969 C 15.441406 58.484375 15.574219 58.46875 15.652344 58.378906 L 42.878906 26.453125 C 42.9375 26.382812 42.949219 26.285156 42.914062 26.203125 C 42.875 26.117188 42.792969 26.066406 42.703125 26.066406 L 28.328125 26.066406 L 28.328125 26.300781 L 28.527344 26.414062 L 28.328125 26.300781 L 28.328125 26.535156 L 42.195312 26.535156 L 16.792969 56.320312 L 30.054688 32.316406 C 30.09375 32.242188 30.09375 32.152344 30.054688 32.082031 C 30.011719 32.011719 29.933594 31.964844 29.851562 31.964844 L 15.984375 31.964844 L 41.382812 2.179688 L 28.125 26.1875 C 28.082031 26.257812 28.085938 26.347656 28.125 26.417969 C 28.167969 26.488281 28.242188 26.535156 28.328125 26.535156 L 28.328125 26.300781 " fill-opacity="1" fill-rule="nonzero"/></g><g clip-path="url(#02b7cea51d)"><path fill="#ffffff" d="M 30.148438 8.398438 C 18.136719 8.398438 8.398438 18.136719 8.398438 30.148438 C 8.398438 42.164062 18.136719 51.898438 30.148438 51.898438 C 42.164062 51.898438 51.898438 42.164062 51.898438 30.148438 C 51.882812 18.136719 42.144531 8.398438 30.148438 8.398438 Z M 41.863281 21.75 L 37.625 41.617188 C 37.417969 42.617188 36.25 43.050781 35.441406 42.445312 L 25.386719 34.953125 L 36.496094 24.914062 C 36.496094 24.914062 37.25 24.292969 37.042969 24.105469 C 36.816406 23.878906 35.988281 24.367188 35.574219 24.652344 C 35.140625 24.972656 21.957031 33.292969 21.957031 33.292969 L 15.273438 31.222656 C 14.519531 30.996094 14.519531 29.960938 15.613281 29.507812 L 40.167969 20.054688 C 41.242188 19.527344 42.089844 20.734375 41.863281 21.75 Z M 41.863281 21.75 " fill-opacity="1" fill-rule="nonzero"/></g></svg>