<svg xmlns="http://www.w3.org/2000/svg" xmlns:xlink="http://www.w3.org/1999/xlink" width="80" zoomAndPan="magnify" viewBox="0 0 60 60" height="80" preserveAspectRatio="xMidYMid meet" version="1.0"><defs><clipPath id="11c64040e1"><path d="M 4.535156 1.023438 L 56.214844 1.023438 L 56.214844 60 L 4.535156 60 Z M 4.535156 1.023438 " clip-rule="nonzero"/></clipPath></defs><path fill="#ffffff" d="M 22.339844 25.367188 C 21.582031 26.148438 20.566406 26.585938 19.480469 26.597656 C 18.394531 26.609375 17.367188 26.195312 16.59375 25.429688 C 15.332031 24.1875 15.007812 22.28125 15.792969 20.691406 C 15.976562 20.304688 16.230469 19.953125 16.53125 19.644531 C 18.097656 18.027344 20.675781 18 22.277344 19.578125 C 23.539062 20.820312 23.859375 22.726562 23.078125 24.320312 C 22.890625 24.703125 22.640625 25.054688 22.339844 25.367188 " fill-opacity="1" fill-rule="nonzero"/><path fill="#ffffff" d="M 33.832031 14.15625 C 34.324219 13.648438 34.984375 13.363281 35.691406 13.355469 C 36.394531 13.347656 37.0625 13.617188 37.5625 14.113281 C 38.382812 14.921875 38.59375 16.160156 38.085938 17.195312 C 37.964844 17.445312 37.800781 17.675781 37.605469 17.878906 C 36.585938 18.925781 34.910156 18.945312 33.871094 17.917969 C 33.050781 17.109375 32.839844 15.871094 33.347656 14.835938 C 33.472656 14.589844 33.632812 14.355469 33.832031 14.15625 " fill-opacity="1" fill-rule="nonzero"/><g clip-path="url(#11c64040e1)"><path fill="#ffffff" d="M 26.503906 18.96875 C 26.632812 19.226562 26.742188 19.488281 26.839844 19.753906 C 26.941406 20.027344 27.230469 20.320312 27.507812 20.398438 L 28.753906 20.757812 C 28.933594 20.808594 29.109375 20.953125 29.21875 21.125 C 29.21875 21.128906 29.21875 21.128906 29.21875 21.128906 C 29.238281 21.15625 29.253906 21.1875 29.269531 21.21875 C 29.273438 21.230469 29.277344 21.238281 29.28125 21.25 C 29.289062 21.273438 29.300781 21.296875 29.308594 21.320312 C 29.316406 21.355469 29.324219 21.390625 29.332031 21.425781 C 29.363281 21.722656 29.382812 22.027344 29.382812 22.332031 C 29.386719 22.660156 29.375 22.984375 29.34375 23.300781 C 29.316406 23.589844 29.054688 23.894531 28.777344 23.980469 L 27.570312 24.359375 C 27.292969 24.441406 27.011719 24.742188 26.921875 25.019531 C 26.8125 25.359375 26.675781 25.699219 26.511719 26.027344 C 26.488281 26.078125 26.464844 26.125 26.4375 26.171875 C 26.394531 26.25 26.472656 26.519531 26.613281 26.777344 L 27.222656 27.882812 C 27.363281 28.136719 27.347656 28.539062 27.164062 28.765625 C 26.96875 29.019531 26.757812 29.261719 26.527344 29.496094 C 26.316406 29.714844 26.097656 29.921875 25.867188 30.113281 C 25.644531 30.300781 25.25 30.332031 24.992188 30.195312 L 23.894531 29.609375 C 23.640625 29.472656 23.230469 29.484375 22.96875 29.617188 C 22.695312 29.753906 22.410156 29.878906 22.117188 29.984375 C 21.847656 30.085938 21.558594 30.375 21.476562 30.65625 L 21.140625 31.847656 C 21.058594 32.128906 20.765625 32.394531 20.476562 32.429688 C 20.179688 32.460938 19.882812 32.480469 19.578125 32.484375 C 19.253906 32.488281 18.929688 32.472656 18.613281 32.441406 C 18.324219 32.414062 18.023438 32.152344 17.9375 31.871094 L 17.578125 30.699219 C 17.496094 30.421875 17.199219 30.136719 16.925781 30.046875 C 16.628906 29.945312 16.34375 29.828125 16.0625 29.695312 C 15.796875 29.570312 15.390625 29.570312 15.136719 29.710938 L 14.070312 30.3125 C 13.816406 30.453125 13.421875 30.433594 13.195312 30.253906 C 12.945312 30.054688 12.703125 29.839844 12.46875 29.609375 C 12.25 29.394531 12.046875 29.175781 11.855469 28.941406 C 11.667969 28.71875 11.640625 28.320312 11.773438 28.0625 L 12.359375 26.949219 C 12.496094 26.691406 12.484375 26.28125 12.355469 26.019531 C 12.222656 25.746094 12.101562 25.460938 12 25.175781 C 11.90625 24.902344 11.613281 24.609375 11.339844 24.53125 L 10.140625 24.1875 C 9.933594 24.128906 9.726562 23.941406 9.628906 23.730469 C 9.621094 23.722656 9.621094 23.71875 9.617188 23.707031 C 9.605469 23.683594 9.59375 23.65625 9.585938 23.628906 C 9.574219 23.589844 9.566406 23.558594 9.5625 23.523438 C 9.550781 23.445312 9.546875 23.371094 9.542969 23.292969 C 9.519531 23.046875 9.503906 22.804688 9.5 22.550781 C 9.496094 22.246094 9.507812 21.941406 9.535156 21.640625 C 9.5625 21.351562 9.820312 21.046875 10.09375 20.960938 L 11.316406 20.582031 C 11.59375 20.5 11.878906 20.199219 11.972656 19.921875 C 12.074219 19.605469 12.207031 19.289062 12.359375 18.980469 C 12.382812 18.921875 12.417969 18.867188 12.445312 18.8125 C 12.496094 18.71875 12.425781 18.4375 12.28125 18.183594 L 11.65625 17.046875 C 11.515625 16.796875 11.535156 16.394531 11.714844 16.167969 C 11.902344 15.933594 12.101562 15.707031 12.316406 15.488281 C 12.542969 15.25 12.78125 15.035156 13.027344 14.828125 C 13.25 14.644531 13.644531 14.613281 13.902344 14.75 L 15.046875 15.359375 C 15.300781 15.496094 15.710938 15.488281 15.972656 15.359375 C 16.222656 15.238281 16.476562 15.128906 16.738281 15.035156 C 17.007812 14.933594 17.296875 14.644531 17.375 14.363281 L 17.734375 13.097656 C 17.8125 12.816406 18.109375 12.546875 18.394531 12.511719 C 18.710938 12.472656 19.03125 12.453125 19.359375 12.449219 C 19.664062 12.445312 19.964844 12.457031 20.257812 12.484375 C 20.550781 12.507812 20.851562 12.769531 20.9375 13.050781 L 21.324219 14.320312 C 21.410156 14.597656 21.707031 14.882812 21.980469 14.976562 C 22.238281 15.066406 22.496094 15.171875 22.75 15.289062 C 23.011719 15.410156 23.421875 15.410156 23.675781 15.269531 L 24.824219 14.625 C 25.078125 14.484375 25.472656 14.503906 25.699219 14.6875 C 25.929688 14.875 26.15625 15.074219 26.375 15.289062 C 26.605469 15.519531 26.824219 15.757812 27.027344 16.007812 C 27.210938 16.230469 27.242188 16.632812 27.105469 16.886719 L 26.5 18.039062 C 26.363281 18.296875 26.375 18.710938 26.503906 18.96875 Z M 29.464844 19.332031 C 29.375 19.289062 29.292969 19.234375 29.222656 19.164062 C 29.214844 19.15625 29.207031 19.152344 29.199219 19.144531 C 29.175781 19.117188 29.148438 19.089844 29.128906 19.0625 C 29.121094 19.050781 29.113281 19.042969 29.105469 19.03125 C 29.082031 18.996094 29.058594 18.957031 29.042969 18.914062 C 28.925781 18.617188 28.820312 18.308594 28.734375 17.996094 C 28.652344 17.699219 28.585938 17.402344 28.535156 17.109375 C 28.527344 17.074219 28.523438 17.039062 28.523438 17.003906 C 28.523438 16.984375 28.527344 16.960938 28.53125 16.941406 C 28.53125 16.929688 28.53125 16.917969 28.535156 16.902344 C 28.535156 16.875 28.542969 16.847656 28.554688 16.816406 C 28.554688 16.8125 28.554688 16.8125 28.554688 16.804688 C 28.5625 16.773438 28.574219 16.742188 28.585938 16.707031 C 28.652344 16.542969 28.765625 16.390625 28.902344 16.304688 L 29.695312 15.800781 C 29.9375 15.648438 30.15625 15.285156 30.210938 15 C 30.253906 14.757812 30.3125 14.515625 30.390625 14.277344 C 30.480469 14.003906 30.460938 13.578125 30.320312 13.324219 L 29.867188 12.503906 C 29.726562 12.25 29.75 11.851562 29.929688 11.621094 C 30.113281 11.386719 30.3125 11.160156 30.527344 10.941406 C 30.753906 10.707031 30.992188 10.488281 31.238281 10.285156 C 31.460938 10.097656 31.859375 10.070312 32.113281 10.207031 L 32.925781 10.640625 C 33.183594 10.773438 33.601562 10.785156 33.875 10.6875 C 34.105469 10.609375 34.34375 10.539062 34.582031 10.488281 C 34.867188 10.429688 35.21875 10.203125 35.371094 9.957031 L 35.847656 9.144531 C 35.996094 8.894531 36.351562 8.714844 36.640625 8.757812 C 36.933594 8.804688 37.226562 8.863281 37.523438 8.9375 C 37.835938 9.019531 38.144531 9.117188 38.441406 9.230469 C 38.714844 9.332031 38.9375 9.664062 38.949219 9.957031 L 38.984375 10.929688 C 38.992188 11.21875 39.152344 11.5625 39.328125 11.707031 C 39.433594 11.792969 39.535156 11.886719 39.636719 11.980469 C 39.742188 12.089844 39.84375 12.199219 39.941406 12.3125 C 40.109375 12.5 40.460938 12.671875 40.75 12.675781 L 41.726562 12.6875 C 41.925781 12.691406 42.140625 12.796875 42.289062 12.945312 C 42.300781 12.953125 42.308594 12.960938 42.316406 12.972656 C 42.332031 12.984375 42.339844 12.996094 42.351562 13.015625 C 42.367188 13.03125 42.378906 13.042969 42.386719 13.058594 C 42.394531 13.070312 42.402344 13.082031 42.410156 13.09375 C 42.429688 13.121094 42.445312 13.152344 42.457031 13.183594 C 42.566406 13.464844 42.660156 13.75 42.742188 14.046875 C 42.832031 14.363281 42.898438 14.679688 42.953125 14.996094 C 43 15.28125 42.824219 15.644531 42.582031 15.796875 L 41.730469 16.335938 C 41.484375 16.492188 41.265625 16.851562 41.207031 17.140625 C 41.167969 17.335938 41.117188 17.53125 41.054688 17.726562 C 40.964844 18.003906 40.984375 18.425781 41.125 18.683594 L 41.617188 19.574219 C 41.757812 19.828125 41.738281 20.230469 41.5625 20.460938 C 41.363281 20.710938 41.152344 20.957031 40.925781 21.1875 C 40.710938 21.410156 40.488281 21.617188 40.261719 21.808594 C 40.039062 21.996094 39.644531 22.027344 39.390625 21.886719 L 38.480469 21.40625 C 38.226562 21.269531 37.808594 21.257812 37.53125 21.351562 C 37.339844 21.417969 37.144531 21.472656 36.949219 21.519531 C 36.667969 21.582031 36.316406 21.8125 36.164062 22.0625 L 35.648438 22.933594 C 35.5 23.183594 35.144531 23.367188 34.859375 23.324219 C 34.542969 23.28125 34.226562 23.21875 33.910156 23.132812 C 33.617188 23.058594 33.328125 22.96875 33.050781 22.867188 C 32.777344 22.765625 32.554688 22.4375 32.542969 22.144531 L 32.507812 21.152344 C 32.496094 20.863281 32.324219 20.511719 32.132812 20.351562 C 32.019531 20.257812 31.910156 20.15625 31.800781 20.050781 C 31.703125 19.953125 31.605469 19.851562 31.519531 19.75 C 31.367188 19.578125 31.023438 19.425781 30.738281 19.421875 L 29.773438 19.410156 C 29.671875 19.40625 29.566406 19.378906 29.464844 19.332031 Z M 28.214844 1.023438 C 18.578125 1.027344 7.242188 4.726562 5.003906 16.953125 C 2.34375 31.53125 11.808594 42.105469 11.808594 42.105469 L 12.238281 50.289062 L 38.542969 60.273438 L 39.632812 53.929688 C 39.632812 53.929688 44.867188 55.203125 49.777344 54.3125 C 53.722656 53.597656 50.535156 47.796875 50.535156 47.796875 L 51.683594 44.472656 L 49.898438 42.679688 L 51.605469 41.085938 L 51.605469 37.0625 C 51.605469 37.0625 53.339844 37.355469 55.46875 36.679688 C 58.578125 35.695312 50.957031 26.050781 50.929688 23.609375 C 50.789062 12.335938 44.871094 1.023438 28.214844 1.023438 " fill-opacity="1" fill-rule="nonzero"/></g></svg>