<svg xmlns="http://www.w3.org/2000/svg" xmlns:xlink="http://www.w3.org/1999/xlink" width="80" zoomAndPan="magnify" viewBox="0 0 60 60" height="80" preserveAspectRatio="xMidYMid meet" version="1.0"><defs><clipPath id="4b72cb1dd8"><path d="M 0 31.34375 L 14.25 31.34375 L 14.25 60 L 0 60 Z M 0 31.34375 " clip-rule="nonzero"/></clipPath><clipPath id="d02253768f"><path d="M 46.492188 31.34375 L 59.78125 31.34375 L 59.78125 59.84375 L 46.492188 59.84375 Z M 46.492188 31.34375 " clip-rule="nonzero"/></clipPath><clipPath id="56f2b66187"><path d="M 46.492188 0.152344 L 59.78125 0.152344 L 59.78125 28.5 L 46.492188 28.5 Z M 46.492188 0.152344 " clip-rule="nonzero"/></clipPath><clipPath id="cde943f484"><path d="M 0 0.152344 L 13.5 0.152344 L 13.5 28.5 L 0 28.5 Z M 0 0.152344 " clip-rule="nonzero"/></clipPath><clipPath id="a8bbc29c6d"><path d="M 15.144531 15.597656 L 45.144531 15.597656 L 45.144531 45.597656 L 15.144531 45.597656 Z M 15.144531 15.597656 " clip-rule="nonzero"/></clipPath></defs><g clip-path="url(#4b72cb1dd8)"><path fill="#ffffff" d="M 6.734375 44.492188 L 14.117188 31.480469 L 0.136719 47.441406 L 7.519531 47.441406 L 0.136719 60.453125 L 14.117188 44.492188 L 6.734375 44.492188 " fill-opacity="1" fill-rule="nonzero"/><path fill="#ffffff" d="M 6.734375 44.492188 L 6.839844 44.550781 L 14.222656 31.539062 C 14.25 31.488281 14.234375 31.421875 14.1875 31.386719 C 14.136719 31.351562 14.066406 31.359375 14.027344 31.40625 L 0.046875 47.367188 C 0.015625 47.402344 0.0078125 47.449219 0.0273438 47.492188 C 0.046875 47.535156 0.0898438 47.558594 0.136719 47.558594 L 7.316406 47.558594 L 0.03125 60.398438 C 0.00390625 60.449219 0.0195312 60.515625 0.0703125 60.550781 C 0.117188 60.585938 0.1875 60.574219 0.226562 60.53125 L 14.207031 44.570312 C 14.238281 44.535156 14.246094 44.484375 14.226562 44.445312 C 14.207031 44.402344 14.164062 44.375 14.117188 44.375 L 6.734375 44.375 L 6.734375 44.492188 L 6.839844 44.550781 L 6.734375 44.492188 L 6.734375 44.609375 L 13.859375 44.609375 L 0.8125 59.5 L 7.625 47.5 C 7.644531 47.464844 7.644531 47.417969 7.621094 47.382812 C 7.601562 47.347656 7.5625 47.328125 7.519531 47.328125 L 0.398438 47.328125 L 13.441406 32.433594 L 6.632812 44.4375 C 6.609375 44.472656 6.609375 44.515625 6.632812 44.550781 C 6.652344 44.589844 6.691406 44.609375 6.734375 44.609375 L 6.734375 44.492188 " fill-opacity="1" fill-rule="nonzero"/></g><g clip-path="url(#d02253768f)"><path fill="#ffffff" d="M 53.609375 44.15625 L 46.617188 31.484375 L 59.863281 47.03125 L 52.867188 47.03125 L 59.863281 59.703125 L 46.617188 44.15625 L 53.609375 44.15625 " fill-opacity="1" fill-rule="nonzero"/><path fill="#ffffff" d="M 53.609375 44.15625 L 53.511719 44.210938 L 46.519531 31.539062 C 46.488281 31.488281 46.503906 31.421875 46.550781 31.390625 C 46.601562 31.355469 46.664062 31.363281 46.703125 31.410156 L 59.945312 46.957031 C 59.976562 46.988281 59.984375 47.035156 59.964844 47.078125 C 59.945312 47.117188 59.90625 47.144531 59.863281 47.144531 L 53.058594 47.144531 L 59.960938 59.648438 C 59.988281 59.699219 59.972656 59.761719 59.925781 59.796875 C 59.878906 59.832031 59.8125 59.820312 59.777344 59.777344 L 46.53125 44.230469 C 46.503906 44.195312 46.496094 44.148438 46.515625 44.109375 C 46.53125 44.066406 46.574219 44.042969 46.617188 44.042969 L 53.609375 44.042969 L 53.609375 44.15625 L 53.511719 44.210938 L 53.609375 44.15625 L 53.609375 44.269531 L 46.863281 44.269531 L 59.21875 58.777344 L 52.769531 47.085938 C 52.75 47.050781 52.75 47.007812 52.769531 46.972656 C 52.789062 46.9375 52.828125 46.914062 52.867188 46.914062 L 59.617188 46.914062 L 47.257812 32.410156 L 53.710938 44.101562 C 53.730469 44.136719 53.726562 44.179688 53.707031 44.214844 C 53.6875 44.25 53.652344 44.269531 53.609375 44.269531 L 53.609375 44.15625 " fill-opacity="1" fill-rule="nonzero"/></g><g clip-path="url(#56f2b66187)"><path fill="#ffffff" d="M 53.609375 15.839844 L 46.617188 28.511719 L 59.863281 12.964844 L 52.867188 12.964844 L 59.863281 0.292969 L 46.617188 15.839844 L 53.609375 15.839844 " fill-opacity="1" fill-rule="nonzero"/><path fill="#ffffff" d="M 53.609375 15.839844 L 53.511719 15.785156 L 46.519531 28.457031 C 46.488281 28.507812 46.503906 28.574219 46.550781 28.605469 C 46.601562 28.640625 46.664062 28.632812 46.703125 28.585938 L 59.945312 13.039062 C 59.976562 13.007812 59.984375 12.957031 59.964844 12.917969 C 59.945312 12.878906 59.90625 12.851562 59.863281 12.851562 L 53.058594 12.851562 L 59.960938 0.347656 C 59.988281 0.296875 59.972656 0.230469 59.925781 0.199219 C 59.878906 0.164062 59.8125 0.171875 59.777344 0.21875 L 46.53125 15.765625 C 46.503906 15.796875 46.496094 15.847656 46.515625 15.886719 C 46.53125 15.925781 46.574219 15.953125 46.617188 15.953125 L 53.609375 15.953125 L 53.609375 15.839844 L 53.511719 15.785156 L 53.609375 15.839844 L 53.609375 15.726562 L 46.863281 15.726562 L 59.21875 1.21875 L 52.769531 12.910156 C 52.75 12.945312 52.75 12.988281 52.769531 13.023438 C 52.789062 13.058594 52.828125 13.078125 52.867188 13.078125 L 59.617188 13.078125 L 47.257812 27.585938 L 53.710938 15.894531 C 53.730469 15.859375 53.726562 15.816406 53.707031 15.78125 C 53.6875 15.746094 53.652344 15.726562 53.609375 15.726562 L 53.609375 15.839844 " fill-opacity="1" fill-rule="nonzero"/></g><g clip-path="url(#cde943f484)"><path fill="#ffffff" d="M 6.382812 15.839844 L 13.375 28.511719 L 0.128906 12.964844 L 7.125 12.964844 L 0.128906 0.292969 L 13.375 15.839844 L 6.382812 15.839844 " fill-opacity="1" fill-rule="nonzero"/><path fill="#ffffff" d="M 6.382812 15.839844 L 6.480469 15.785156 L 13.472656 28.457031 C 13.5 28.507812 13.488281 28.574219 13.4375 28.605469 C 13.390625 28.640625 13.328125 28.632812 13.289062 28.585938 L 0.0429688 13.039062 C 0.015625 13.007812 0.0078125 12.957031 0.0273438 12.917969 C 0.046875 12.878906 0.0859375 12.851562 0.128906 12.851562 L 6.929688 12.851562 L 0.03125 0.347656 C 0.00390625 0.296875 0.015625 0.230469 0.0664062 0.199219 C 0.113281 0.164062 0.175781 0.171875 0.214844 0.21875 L 13.460938 15.765625 C 13.488281 15.796875 13.496094 15.847656 13.476562 15.886719 C 13.457031 15.925781 13.417969 15.953125 13.375 15.953125 L 6.382812 15.953125 L 6.382812 15.839844 L 6.480469 15.785156 L 6.382812 15.839844 L 6.382812 15.726562 L 13.128906 15.726562 L 0.769531 1.21875 L 7.222656 12.910156 C 7.242188 12.945312 7.242188 12.988281 7.222656 13.023438 C 7.199219 13.058594 7.164062 13.078125 7.125 13.078125 L 0.375 13.078125 L 12.734375 27.585938 L 6.28125 15.894531 C 6.261719 15.859375 6.261719 15.816406 6.285156 15.78125 C 6.304688 15.746094 6.339844 15.726562 6.382812 15.726562 L 6.382812 15.839844 " fill-opacity="1" fill-rule="nonzero"/></g><g clip-path="url(#a8bbc29c6d)"><path fill="#ffffff" d="M 30.144531 15.597656 C 21.859375 15.597656 15.144531 22.3125 15.144531 30.597656 C 15.144531 38.882812 21.859375 45.597656 30.144531 45.597656 C 38.429688 45.597656 45.144531 38.882812 45.144531 30.597656 C 45.128906 22.3125 38.417969 15.597656 30.144531 15.597656 Z M 38.222656 24.804688 L 35.300781 38.507812 C 35.15625 39.195312 34.351562 39.492188 33.792969 39.078125 L 26.859375 33.910156 L 34.519531 26.988281 C 34.519531 26.988281 35.039062 26.558594 34.898438 26.429688 C 34.742188 26.273438 34.167969 26.609375 33.882812 26.804688 C 33.585938 27.027344 24.496094 32.765625 24.496094 32.765625 L 19.882812 31.339844 C 19.363281 31.183594 19.363281 30.46875 20.117188 30.15625 L 37.054688 23.636719 C 37.792969 23.273438 38.378906 24.105469 38.222656 24.804688 Z M 38.222656 24.804688 " fill-opacity="1" fill-rule="nonzero"/></g></svg>