<svg xmlns="http://www.w3.org/2000/svg" xmlns:xlink="http://www.w3.org/1999/xlink" width="80" zoomAndPan="magnify" viewBox="0 0 60 60" height="80" preserveAspectRatio="xMidYMid meet" version="1.0"><defs><clipPath id="6815e5f63f"><path d="M 5.011719 1.152344 L 55.261719 1.152344 L 55.261719 58.902344 L 5.011719 58.902344 Z M 5.011719 1.152344 " clip-rule="nonzero"/></clipPath></defs><g clip-path="url(#6815e5f63f)"><path fill="#ffffff" d="M 55.261719 57.921875 L 55.261719 2.132812 C 55.261719 1.601562 54.824219 1.167969 54.292969 1.167969 L 5.976562 1.167969 C 5.445312 1.167969 5.011719 1.601562 5.011719 2.132812 L 5.011719 57.921875 C 5.011719 58.453125 5.445312 58.882812 5.976562 58.882812 L 54.292969 58.882812 C 54.824219 58.882812 55.261719 58.453125 55.261719 57.921875 Z M 53.328125 56.960938 L 6.941406 56.960938 L 6.941406 3.09375 L 53.328125 3.09375 Z M 53.328125 56.960938 " fill-opacity="1" fill-rule="nonzero"/></g><path fill="#ffffff" d="M 12.742188 11.75 L 16.605469 11.75 C 17.136719 11.75 17.574219 11.316406 17.574219 10.789062 C 17.574219 10.257812 17.136719 9.828125 16.605469 9.828125 L 13.707031 9.828125 L 13.707031 5.980469 C 13.707031 5.449219 13.273438 5.015625 12.742188 5.015625 C 12.210938 5.015625 11.773438 5.449219 11.773438 5.980469 L 11.773438 10.789062 C 11.773438 11.316406 12.210938 11.75 12.742188 11.75 Z M 12.742188 11.75 " fill-opacity="1" fill-rule="nonzero"/><path fill="#ffffff" d="M 22.40625 11.75 C 24 11.75 25.304688 10.453125 25.304688 8.863281 L 25.304688 7.902344 C 25.304688 6.316406 24 5.015625 22.40625 5.015625 C 20.808594 5.015625 19.503906 6.316406 19.503906 7.902344 L 19.503906 8.863281 C 19.503906 10.453125 20.808594 11.75 22.40625 11.75 Z M 21.4375 7.902344 C 21.4375 7.375 21.875 6.941406 22.40625 6.941406 C 22.9375 6.941406 23.371094 7.375 23.371094 7.902344 L 23.371094 8.863281 C 23.371094 9.394531 22.9375 9.828125 22.40625 9.828125 C 21.875 9.828125 21.4375 9.394531 21.4375 8.863281 Z M 21.4375 7.902344 " fill-opacity="1" fill-rule="nonzero"/><path fill="#ffffff" d="M 45.597656 11.75 C 47.191406 11.75 48.496094 10.453125 48.496094 8.863281 L 48.496094 7.902344 C 48.496094 6.316406 47.191406 5.015625 45.597656 5.015625 C 44.003906 5.015625 42.699219 6.316406 42.699219 7.902344 L 42.699219 8.863281 C 42.699219 10.453125 44.003906 11.75 45.597656 11.75 Z M 44.628906 7.902344 C 44.628906 7.375 45.066406 6.941406 45.597656 6.941406 C 46.128906 6.941406 46.5625 7.375 46.5625 7.902344 L 46.5625 8.863281 C 46.5625 9.394531 46.128906 9.828125 45.597656 9.828125 C 45.066406 9.828125 44.628906 9.394531 44.628906 8.863281 Z M 44.628906 7.902344 " fill-opacity="1" fill-rule="nonzero"/><path fill="#ffffff" d="M 28.203125 6.941406 L 29.167969 6.941406 L 29.167969 10.789062 C 29.167969 11.316406 29.605469 11.75 30.136719 11.75 C 30.667969 11.75 31.101562 11.316406 31.101562 10.789062 L 31.101562 6.941406 L 32.066406 6.941406 C 32.601562 6.941406 33.035156 6.507812 33.035156 5.980469 C 33.035156 5.449219 32.601562 5.015625 32.066406 5.015625 L 28.203125 5.015625 C 27.671875 5.015625 27.238281 5.449219 27.238281 5.980469 C 27.238281 6.507812 27.671875 6.941406 28.203125 6.941406 Z M 28.203125 6.941406 " fill-opacity="1" fill-rule="nonzero"/><path fill="#ffffff" d="M 35.933594 6.941406 L 36.898438 6.941406 L 36.898438 10.789062 C 36.898438 11.316406 37.335938 11.75 37.867188 11.75 C 38.398438 11.75 38.832031 11.316406 38.832031 10.789062 L 38.832031 6.941406 L 39.800781 6.941406 C 40.332031 6.941406 40.765625 6.507812 40.765625 5.980469 C 40.765625 5.449219 40.332031 5.015625 39.800781 5.015625 L 35.933594 5.015625 C 35.402344 5.015625 34.96875 5.449219 34.96875 5.980469 C 34.96875 6.507812 35.402344 6.941406 35.933594 6.941406 Z M 35.933594 6.941406 " fill-opacity="1" fill-rule="nonzero"/><path fill="#ffffff" d="M 17.210938 25.457031 C 19.144531 25.457031 20.714844 23.894531 20.714844 21.972656 C 20.714844 20.046875 19.144531 18.484375 17.210938 18.484375 C 15.277344 18.484375 13.707031 20.046875 13.707031 21.972656 C 13.707031 23.894531 15.277344 25.457031 17.210938 25.457031 Z M 17.210938 20.40625 C 18.082031 20.40625 18.78125 21.105469 18.78125 21.972656 C 18.78125 22.835938 18.082031 23.535156 17.210938 23.535156 C 16.339844 23.535156 15.640625 22.835938 15.640625 21.972656 C 15.640625 21.105469 16.339844 20.40625 17.210938 20.40625 Z M 17.210938 20.40625 " fill-opacity="1" fill-rule="nonzero"/><path fill="#ffffff" d="M 17.210938 34.113281 C 19.144531 34.113281 20.714844 32.550781 20.714844 30.628906 C 20.714844 28.703125 19.144531 27.140625 17.210938 27.140625 C 15.277344 27.140625 13.707031 28.703125 13.707031 30.628906 C 13.707031 32.550781 15.277344 34.113281 17.210938 34.113281 Z M 17.210938 29.066406 C 18.082031 29.066406 18.78125 29.761719 18.78125 30.628906 C 18.78125 31.492188 18.082031 32.191406 17.210938 32.191406 C 16.339844 32.191406 15.640625 31.492188 15.640625 30.628906 C 15.640625 29.761719 16.339844 29.066406 17.210938 29.066406 Z M 17.210938 29.066406 " fill-opacity="1" fill-rule="nonzero"/><path fill="#ffffff" d="M 20.230469 39.527344 C 20.230469 39.925781 20.152344 40.308594 20 40.675781 C 19.847656 41.042969 19.628906 41.371094 19.347656 41.652344 C 19.0625 41.933594 18.734375 42.152344 18.367188 42.304688 C 17.996094 42.457031 17.609375 42.53125 17.210938 42.53125 C 16.808594 42.53125 16.425781 42.457031 16.054688 42.304688 C 15.683594 42.152344 15.359375 41.933594 15.074219 41.652344 C 14.792969 41.371094 14.574219 41.042969 14.421875 40.675781 C 14.265625 40.308594 14.191406 39.925781 14.191406 39.527344 C 14.191406 39.128906 14.265625 38.742188 14.421875 38.375 C 14.574219 38.007812 14.792969 37.683594 15.074219 37.398438 C 15.359375 37.117188 15.683594 36.902344 16.054688 36.75 C 16.425781 36.597656 16.808594 36.519531 17.210938 36.519531 C 17.609375 36.519531 17.996094 36.597656 18.367188 36.75 C 18.734375 36.902344 19.0625 37.117188 19.347656 37.398438 C 19.628906 37.683594 19.847656 38.007812 20 38.375 C 20.152344 38.742188 20.230469 39.128906 20.230469 39.527344 Z M 20.230469 39.527344 " fill-opacity="1" fill-rule="nonzero"/><path fill="#ffffff" d="M 28.925781 21.972656 C 28.925781 22.371094 28.851562 22.753906 28.699219 23.121094 C 28.542969 23.488281 28.328125 23.816406 28.042969 24.097656 C 27.761719 24.378906 27.433594 24.59375 27.0625 24.75 C 26.691406 24.902344 26.308594 24.976562 25.90625 24.976562 C 25.507812 24.976562 25.121094 24.902344 24.753906 24.75 C 24.382812 24.59375 24.054688 24.378906 23.773438 24.097656 C 23.488281 23.816406 23.269531 23.488281 23.117188 23.121094 C 22.964844 22.753906 22.886719 22.371094 22.886719 21.972656 C 22.886719 21.574219 22.964844 21.1875 23.117188 20.820312 C 23.269531 20.453125 23.488281 20.128906 23.773438 19.84375 C 24.054688 19.5625 24.382812 19.347656 24.753906 19.195312 C 25.121094 19.042969 25.507812 18.964844 25.90625 18.964844 C 26.308594 18.964844 26.691406 19.042969 27.0625 19.195312 C 27.433594 19.347656 27.761719 19.5625 28.042969 19.84375 C 28.328125 20.128906 28.542969 20.453125 28.699219 20.820312 C 28.851562 21.1875 28.925781 21.574219 28.925781 21.972656 Z M 28.925781 21.972656 " fill-opacity="1" fill-rule="nonzero"/><path fill="#ffffff" d="M 25.90625 34.113281 C 27.839844 34.113281 29.410156 32.550781 29.410156 30.628906 C 29.410156 28.703125 27.839844 27.140625 25.90625 27.140625 C 23.976562 27.140625 22.40625 28.703125 22.40625 30.628906 C 22.40625 32.550781 23.976562 34.113281 25.90625 34.113281 Z M 25.90625 29.066406 C 26.777344 29.066406 27.476562 29.761719 27.476562 30.628906 C 27.476562 31.492188 26.777344 32.191406 25.90625 32.191406 C 25.039062 32.191406 24.335938 31.492188 24.335938 30.628906 C 24.335938 29.761719 25.039062 29.066406 25.90625 29.066406 Z M 25.90625 29.066406 " fill-opacity="1" fill-rule="nonzero"/><path fill="#ffffff" d="M 25.90625 36.039062 C 23.976562 36.039062 22.40625 37.601562 22.40625 39.527344 C 22.40625 41.449219 23.976562 43.011719 25.90625 43.011719 C 27.839844 43.011719 29.410156 41.449219 29.410156 39.527344 C 29.410156 37.601562 27.839844 36.039062 25.90625 36.039062 Z M 25.90625 41.089844 C 25.039062 41.089844 24.335938 40.390625 24.335938 39.527344 C 24.335938 38.660156 25.039062 37.960938 25.90625 37.960938 C 26.777344 37.960938 27.476562 38.660156 27.476562 39.527344 C 27.476562 40.390625 26.777344 41.089844 25.90625 41.089844 Z M 25.90625 41.089844 " fill-opacity="1" fill-rule="nonzero"/><path fill="#ffffff" d="M 34.605469 18.484375 C 32.671875 18.484375 31.101562 20.046875 31.101562 21.972656 C 31.101562 23.894531 32.671875 25.457031 34.605469 25.457031 C 36.539062 25.457031 38.109375 23.894531 38.109375 21.972656 C 38.109375 20.046875 36.539062 18.484375 34.605469 18.484375 Z M 34.605469 23.535156 C 33.734375 23.535156 33.035156 22.835938 33.035156 21.972656 C 33.035156 21.105469 33.734375 20.40625 34.605469 20.40625 C 35.472656 20.40625 36.175781 21.105469 36.175781 21.972656 C 36.175781 22.835938 35.472656 23.535156 34.605469 23.535156 Z M 34.605469 23.535156 " fill-opacity="1" fill-rule="nonzero"/><path fill="#ffffff" d="M 37.625 30.628906 C 37.625 31.027344 37.546875 31.410156 37.394531 31.777344 C 37.242188 32.148438 37.023438 32.472656 36.738281 32.753906 C 36.457031 33.035156 36.128906 33.253906 35.761719 33.40625 C 35.390625 33.558594 35.003906 33.632812 34.605469 33.632812 C 34.203125 33.632812 33.820312 33.558594 33.449219 33.40625 C 33.078125 33.253906 32.753906 33.035156 32.46875 32.753906 C 32.1875 32.472656 31.96875 32.148438 31.816406 31.777344 C 31.660156 31.410156 31.585938 31.027344 31.585938 30.628906 C 31.585938 30.230469 31.660156 29.847656 31.816406 29.476562 C 31.96875 29.109375 32.1875 28.785156 32.46875 28.503906 C 32.753906 28.222656 33.078125 28.003906 33.449219 27.851562 C 33.820312 27.699219 34.203125 27.621094 34.605469 27.621094 C 35.003906 27.621094 35.390625 27.699219 35.761719 27.851562 C 36.128906 28.003906 36.457031 28.222656 36.738281 28.503906 C 37.023438 28.785156 37.242188 29.109375 37.394531 29.476562 C 37.546875 29.847656 37.625 30.230469 37.625 30.628906 Z M 37.625 30.628906 " fill-opacity="1" fill-rule="nonzero"/><path fill="#ffffff" d="M 34.605469 36.039062 C 32.671875 36.039062 31.101562 37.601562 31.101562 39.527344 C 31.101562 41.449219 32.671875 43.011719 34.605469 43.011719 C 36.539062 43.011719 38.109375 41.449219 38.109375 39.527344 C 38.109375 37.601562 36.539062 36.039062 34.605469 36.039062 Z M 34.605469 41.089844 C 33.734375 41.089844 33.035156 40.390625 33.035156 39.527344 C 33.035156 38.660156 33.734375 37.960938 34.605469 37.960938 C 35.472656 37.960938 36.175781 38.660156 36.175781 39.527344 C 36.175781 40.390625 35.472656 41.089844 34.605469 41.089844 Z M 34.605469 41.089844 " fill-opacity="1" fill-rule="nonzero"/><path fill="#ffffff" d="M 46.320312 21.972656 C 46.320312 22.371094 46.246094 22.753906 46.09375 23.121094 C 45.9375 23.488281 45.71875 23.816406 45.4375 24.097656 C 45.152344 24.378906 44.828125 24.59375 44.457031 24.75 C 44.085938 24.902344 43.703125 24.976562 43.300781 24.976562 C 42.902344 24.976562 42.515625 24.902344 42.144531 24.75 C 41.777344 24.59375 41.449219 24.378906 41.167969 24.097656 C 40.882812 23.816406 40.664062 23.488281 40.511719 23.121094 C 40.359375 22.753906 40.28125 22.371094 40.28125 21.972656 C 40.28125 21.574219 40.359375 21.1875 40.511719 20.820312 C 40.664062 20.453125 40.882812 20.128906 41.167969 19.84375 C 41.449219 19.5625 41.777344 19.347656 42.144531 19.195312 C 42.515625 19.042969 42.902344 18.964844 43.300781 18.964844 C 43.703125 18.964844 44.085938 19.042969 44.457031 19.195312 C 44.828125 19.347656 45.152344 19.5625 45.4375 19.84375 C 45.71875 20.128906 45.9375 20.453125 46.09375 20.820312 C 46.246094 21.1875 46.320312 21.574219 46.320312 21.972656 Z M 46.320312 21.972656 " fill-opacity="1" fill-rule="nonzero"/><path fill="#ffffff" d="M 43.300781 27.140625 C 41.371094 27.140625 39.800781 28.703125 39.800781 30.628906 C 39.800781 32.550781 41.371094 34.113281 43.300781 34.113281 C 45.234375 34.113281 46.804688 32.550781 46.804688 30.628906 C 46.804688 28.703125 45.234375 27.140625 43.300781 27.140625 Z M 43.300781 32.191406 C 42.433594 32.191406 41.730469 31.492188 41.730469 30.628906 C 41.730469 29.761719 42.433594 29.066406 43.300781 29.066406 C 44.171875 29.066406 44.871094 29.761719 44.871094 30.628906 C 44.871094 31.492188 44.171875 32.191406 43.300781 32.191406 Z M 43.300781 32.191406 " fill-opacity="1" fill-rule="nonzero"/><path fill="#ffffff" d="M 43.300781 36.039062 C 41.371094 36.039062 39.800781 37.601562 39.800781 39.527344 C 39.800781 41.449219 41.371094 43.011719 43.300781 43.011719 C 45.234375 43.011719 46.804688 41.449219 46.804688 39.527344 C 46.804688 37.601562 45.234375 36.039062 43.300781 36.039062 Z M 43.300781 41.089844 C 42.433594 41.089844 41.730469 40.390625 41.730469 39.527344 C 41.730469 38.660156 42.433594 37.960938 43.300781 37.960938 C 44.171875 37.960938 44.871094 38.660156 44.871094 39.527344 C 44.871094 40.390625 44.171875 41.089844 43.300781 41.089844 Z M 43.300781 41.089844 " fill-opacity="1" fill-rule="nonzero"/><path fill="#ffffff" d="M 11.773438 15.597656 L 48.496094 15.597656 C 49.027344 15.597656 49.460938 15.164062 49.460938 14.636719 C 49.460938 14.105469 49.027344 13.675781 48.496094 13.675781 L 11.773438 13.675781 C 11.242188 13.675781 10.808594 14.105469 10.808594 14.636719 C 10.808594 15.164062 11.242188 15.597656 11.773438 15.597656 Z M 11.773438 15.597656 " fill-opacity="1" fill-rule="nonzero"/><path fill="#ffffff" d="M 15.640625 47.339844 L 17.574219 47.339844 L 17.574219 53.113281 L 15.640625 53.113281 Z M 15.640625 47.339844 " fill-opacity="1" fill-rule="nonzero"/><path fill="#ffffff" d="M 43.664062 47.339844 L 44.628906 47.339844 L 44.628906 53.113281 L 43.664062 53.113281 Z M 43.664062 47.339844 " fill-opacity="1" fill-rule="nonzero"/><path fill="#ffffff" d="M 18.539062 47.339844 L 19.503906 47.339844 L 19.503906 53.113281 L 18.539062 53.113281 Z M 18.539062 47.339844 " fill-opacity="1" fill-rule="nonzero"/><path fill="#ffffff" d="M 20.472656 47.339844 L 22.40625 47.339844 L 22.40625 53.113281 L 20.472656 53.113281 Z M 20.472656 47.339844 " fill-opacity="1" fill-rule="nonzero"/><path fill="#ffffff" d="M 27.238281 47.339844 L 28.203125 47.339844 L 28.203125 53.113281 L 27.238281 53.113281 Z M 27.238281 47.339844 " fill-opacity="1" fill-rule="nonzero"/><path fill="#ffffff" d="M 29.167969 47.339844 L 31.101562 47.339844 L 31.101562 53.113281 L 29.167969 53.113281 Z M 29.167969 47.339844 " fill-opacity="1" fill-rule="nonzero"/><path fill="#ffffff" d="M 32.066406 47.339844 L 33.035156 47.339844 L 33.035156 53.113281 L 32.066406 53.113281 Z M 32.066406 47.339844 " fill-opacity="1" fill-rule="nonzero"/><path fill="#ffffff" d="M 36.898438 47.339844 L 37.867188 47.339844 L 37.867188 53.113281 L 36.898438 53.113281 Z M 36.898438 47.339844 " fill-opacity="1" fill-rule="nonzero"/><path fill="#ffffff" d="M 38.832031 47.339844 L 42.699219 47.339844 L 42.699219 53.113281 L 38.832031 53.113281 Z M 38.832031 47.339844 " fill-opacity="1" fill-rule="nonzero"/><path fill="#ffffff" d="M 34 47.339844 L 35.933594 47.339844 L 35.933594 53.113281 L 34 53.113281 Z M 34 47.339844 " fill-opacity="1" fill-rule="nonzero"/><path fill="#ffffff" d="M 23.371094 47.339844 L 26.269531 47.339844 L 26.269531 53.113281 L 23.371094 53.113281 Z M 23.371094 47.339844 " fill-opacity="1" fill-rule="nonzero"/></svg>