<svg xmlns="http://www.w3.org/2000/svg" xmlns:xlink="http://www.w3.org/1999/xlink" width="80" zoomAndPan="magnify" viewBox="0 0 60 60" height="80" preserveAspectRatio="xMidYMid meet" version="1.0"><defs><clipPath id="a1def29238"><path d="M 2.476562 0 L 57.226562 0 L 57.226562 60 L 2.476562 60 Z M 2.476562 0 " clip-rule="nonzero"/></clipPath></defs><g clip-path="url(#a1def29238)"><path fill="#ffffff" d="M 4.429688 21.425781 C 4.429688 17.90625 6.328125 14.636719 9.382812 12.898438 L 25.027344 4 C 26.492188 3.164062 28.160156 2.722656 29.851562 2.722656 C 31.539062 2.722656 33.207031 3.164062 34.671875 4.003906 L 50.316406 12.898438 C 53.371094 14.636719 55.269531 17.90625 55.269531 21.425781 L 55.269531 39.066406 C 55.269531 42.585938 53.371094 45.851562 50.316406 47.59375 L 34.671875 56.488281 C 31.742188 58.160156 27.964844 58.160156 25.027344 56.488281 L 9.382812 47.59375 C 6.328125 45.851562 4.429688 42.585938 4.429688 39.066406 Z M 8.421875 49.304688 L 24.0625 58.199219 C 25.824219 59.203125 27.824219 59.734375 29.851562 59.734375 C 31.875 59.734375 33.875 59.203125 35.636719 58.199219 L 51.277344 49.304688 C 54.945312 47.214844 57.226562 43.292969 57.226562 39.066406 L 57.226562 21.425781 C 57.226562 17.199219 54.945312 13.273438 51.277344 11.191406 L 35.636719 2.289062 C 32.113281 0.285156 27.585938 0.285156 24.0625 2.289062 L 8.421875 11.191406 C 4.753906 13.273438 2.476562 17.199219 2.476562 21.425781 L 2.476562 39.066406 C 2.476562 43.292969 4.753906 47.214844 8.421875 49.304688 " fill-opacity="1" fill-rule="nonzero"/></g><path fill="#ffffff" d="M 9.320312 21.425781 C 9.320312 19.671875 10.265625 18.042969 11.789062 17.175781 L 27.433594 8.28125 C 28.175781 7.855469 29.011719 7.644531 29.851562 7.644531 C 30.6875 7.644531 31.523438 7.855469 32.265625 8.28125 L 47.910156 17.175781 C 49.433594 18.042969 50.382812 19.671875 50.382812 21.425781 L 50.382812 39.066406 C 50.382812 40.820312 49.433594 42.449219 47.910156 43.316406 L 32.265625 52.214844 C 30.773438 53.058594 28.925781 53.058594 27.433594 52.214844 L 11.789062 43.316406 C 10.265625 42.449219 9.320312 40.820312 9.320312 39.066406 Z M 10.828125 45.023438 L 26.46875 53.925781 C 27.511719 54.519531 28.679688 54.816406 29.851562 54.816406 C 31.019531 54.816406 32.1875 54.519531 33.230469 53.925781 L 48.871094 45.023438 C 51.011719 43.8125 52.335938 41.527344 52.335938 39.066406 L 52.335938 21.425781 C 52.335938 18.964844 51.011719 16.679688 48.871094 15.46875 L 33.230469 6.566406 C 31.144531 5.382812 28.554688 5.382812 26.46875 6.566406 L 10.828125 15.46875 C 8.691406 16.679688 7.363281 18.964844 7.363281 21.425781 L 7.363281 39.066406 C 7.363281 41.527344 8.691406 43.8125 10.828125 45.023438 " fill-opacity="1" fill-rule="nonzero"/><path fill="#ffffff" d="M 14.207031 39.09375 C 14.746094 39.09375 15.183594 38.648438 15.183594 38.109375 L 15.183594 26.542969 L 21.152344 38.550781 C 21.320312 38.886719 21.664062 39.09375 22.027344 39.09375 C 22.105469 39.09375 22.175781 39.085938 22.253906 39.066406 C 22.691406 38.960938 23.007812 38.566406 23.007812 38.109375 L 23.007812 22.382812 C 23.007812 21.839844 22.566406 21.398438 22.027344 21.398438 C 21.488281 21.398438 21.050781 21.839844 21.050781 22.382812 L 21.050781 33.945312 L 15.082031 21.941406 C 14.878906 21.539062 14.429688 21.324219 13.980469 21.425781 C 13.542969 21.53125 13.230469 21.925781 13.230469 22.382812 L 13.230469 38.109375 C 13.230469 38.648438 13.667969 39.09375 14.207031 39.09375 " fill-opacity="1" fill-rule="nonzero"/><path fill="#ffffff" d="M 26.917969 39.09375 C 27.457031 39.09375 27.894531 38.648438 27.894531 38.109375 L 27.894531 31.230469 L 31.804688 31.230469 C 32.34375 31.230469 32.78125 30.785156 32.78125 30.246094 C 32.78125 29.703125 32.34375 29.261719 31.804688 29.261719 L 27.894531 29.261719 L 27.894531 23.367188 L 34.738281 23.367188 C 35.277344 23.367188 35.714844 22.921875 35.714844 22.382812 C 35.714844 21.839844 35.277344 21.398438 34.738281 21.398438 L 26.917969 21.398438 C 26.378906 21.398438 25.9375 21.839844 25.9375 22.382812 L 25.9375 38.109375 C 25.9375 38.648438 26.378906 39.09375 26.917969 39.09375 " fill-opacity="1" fill-rule="nonzero"/><path fill="#ffffff" d="M 37.671875 23.367188 L 40.605469 23.367188 L 40.605469 38.109375 C 40.605469 38.648438 41.042969 39.09375 41.582031 39.09375 C 42.121094 39.09375 42.558594 38.648438 42.558594 38.109375 L 42.558594 23.367188 L 45.492188 23.367188 C 46.03125 23.367188 46.46875 22.921875 46.46875 22.382812 C 46.46875 21.839844 46.03125 21.398438 45.492188 21.398438 L 37.671875 21.398438 C 37.132812 21.398438 36.695312 21.839844 36.695312 22.382812 C 36.695312 22.921875 37.132812 23.367188 37.671875 23.367188 " fill-opacity="1" fill-rule="nonzero"/></svg>