<svg xmlns="http://www.w3.org/2000/svg" xmlns:xlink="http://www.w3.org/1999/xlink" width="80" zoomAndPan="magnify" viewBox="0 0 60 60" height="80" preserveAspectRatio="xMidYMid meet" version="1.0"><defs><clipPath id="10e4011a8a"><path d="M 9.273438 0 L 50.523438 0 L 50.523438 60 L 9.273438 60 Z M 9.273438 0 " clip-rule="nonzero"/></clipPath></defs><g clip-path="url(#10e4011a8a)"><path fill="#ffffff" d="M 39.40625 16.746094 C 39.785156 17.113281 39.796875 17.722656 39.429688 18.101562 L 25.929688 32.125 C 25.5625 32.503906 24.960938 32.515625 24.582031 32.148438 L 20.589844 28.273438 C 20.210938 27.90625 20.199219 27.296875 20.566406 26.914062 C 20.929688 26.53125 21.539062 26.515625 21.917969 26.886719 L 25.222656 30.097656 L 38.054688 16.769531 C 38.421875 16.386719 39.027344 16.378906 39.40625 16.746094 Z M 45.210938 28.152344 C 44.941406 38.070312 38.238281 39.8125 31.726562 41.507812 C 31.28125 41.625 30.84375 41.738281 30.132812 41.929688 C 29.976562 41.972656 29.808594 41.972656 29.636719 41.929688 C 28.929688 41.738281 28.492188 41.621094 28.042969 41.507812 C 21.554688 39.820312 14.875 38.082031 14.5625 28.246094 L 14.554688 28.128906 L 14.554688 12.617188 C 14.558594 12.128906 14.925781 11.710938 15.417969 11.660156 C 17.636719 11.425781 20.863281 10.539062 23.726562 9.335938 C 26.097656 8.34375 28.179688 7.152344 29.136719 5.976562 L 29.191406 5.914062 L 29.222656 5.882812 C 29.289062 5.820312 29.363281 5.769531 29.4375 5.726562 L 29.457031 5.71875 C 29.585938 5.652344 29.71875 5.621094 29.855469 5.617188 L 29.914062 5.617188 C 30.050781 5.621094 30.1875 5.652344 30.3125 5.71875 L 30.332031 5.726562 C 30.410156 5.769531 30.480469 5.820312 30.546875 5.882812 L 30.632812 5.976562 C 31.589844 7.148438 33.671875 8.339844 36.042969 9.335938 C 38.878906 10.527344 42.066406 11.410156 44.285156 11.652344 C 44.800781 11.667969 45.214844 12.097656 45.214844 12.617188 L 45.214844 28.128906 L 45.210938 28.128906 Z M 43.296875 28.128906 L 43.296875 13.460938 C 40.980469 13.105469 37.984375 12.238281 35.3125 11.117188 C 33.148438 10.207031 31.171875 9.117188 29.886719 7.960938 C 28.597656 9.117188 26.621094 10.207031 24.460938 11.117188 C 21.789062 12.238281 18.789062 13.101562 16.476562 13.460938 L 16.476562 28.171875 C 16.738281 36.578125 22.714844 38.132812 28.523438 39.644531 L 29.882812 40 L 31.246094 39.644531 C 37.066406 38.132812 43.054688 36.574219 43.296875 28.128906 Z M 49.773438 55.332031 C 49.578125 55.410156 49.367188 55.417969 49.175781 55.367188 L 42.609375 53.609375 L 39.03125 59.410156 C 38.753906 59.859375 38.164062 60 37.714844 59.722656 C 37.527344 59.601562 37.390625 59.429688 37.320312 59.234375 L 32.195312 46.253906 C 32.191406 46.253906 32.183594 46.257812 32.179688 46.257812 C 31.464844 46.449219 30.75 46.636719 30.152344 46.804688 C 29.988281 46.851562 29.808594 46.855469 29.632812 46.804688 C 29.035156 46.640625 28.316406 46.449219 27.597656 46.257812 C 27.59375 46.257812 27.585938 46.253906 27.582031 46.253906 L 22.457031 59.234375 C 22.386719 59.429688 22.25 59.601562 22.058594 59.722656 C 21.609375 60 21.019531 59.859375 20.742188 59.410156 L 17.164062 53.609375 L 10.597656 55.371094 C 10.40625 55.417969 10.195312 55.410156 10 55.332031 C 9.507812 55.136719 9.269531 54.578125 9.464844 54.082031 L 14.824219 40.5 C 12.371094 38.09375 10.738281 34.59375 10.574219 29.199219 L 10.566406 29.078125 L 10.566406 8.839844 C 10.570312 8.351562 10.933594 7.933594 11.425781 7.882812 C 14.289062 7.574219 18.4375 6.410156 22.109375 4.835938 C 25.175781 3.519531 27.875 1.9375 29.128906 0.371094 L 29.203125 0.289062 L 29.214844 0.273438 C 29.296875 0.195312 29.386719 0.132812 29.488281 0.0859375 L 29.515625 0.0742188 C 29.636719 0.0234375 29.761719 0 29.886719 0 C 30.011719 0 30.136719 0.0234375 30.253906 0.0742188 L 30.285156 0.0859375 C 30.382812 0.132812 30.476562 0.195312 30.558594 0.273438 L 30.640625 0.371094 C 31.898438 1.9375 34.597656 3.519531 37.664062 4.835938 C 41.3125 6.402344 45.425781 7.558594 48.285156 7.875 C 48.796875 7.898438 49.207031 8.320312 49.207031 8.839844 L 49.207031 29.082031 L 49.203125 29.082031 L 49.203125 29.105469 C 49.054688 34.554688 47.417969 38.082031 44.949219 40.503906 L 50.308594 54.085938 C 50.503906 54.578125 50.265625 55.136719 49.773438 55.332031 Z M 25.71875 45.753906 C 22.339844 44.824219 19.027344 43.75 16.367188 41.808594 L 11.945312 53.015625 L 17.359375 51.566406 C 17.792969 51.449219 18.234375 51.65625 18.441406 52.03125 L 21.367188 56.773438 Z M 31.6875 44.394531 C 39.21875 42.394531 46.976562 40.332031 47.285156 29.082031 L 47.28125 9.6875 C 44.320312 9.246094 40.398438 8.101562 36.910156 6.605469 C 34.074219 5.386719 31.492188 3.921875 29.886719 2.375 C 28.277344 3.917969 25.699219 5.386719 22.859375 6.605469 C 19.375 8.101562 15.453125 9.246094 12.488281 9.6875 L 12.488281 29.128906 C 12.820312 40.339844 20.5625 42.398438 28.082031 44.394531 C 28.660156 44.550781 29.238281 44.703125 29.886719 44.882812 C 30.535156 44.703125 31.109375 44.550781 31.6875 44.394531 Z M 47.828125 53.015625 L 43.40625 41.808594 C 40.742188 43.753906 37.433594 44.824219 34.054688 45.753906 L 38.40625 56.773438 L 41.332031 52.03125 C 41.539062 51.652344 41.980469 51.449219 42.414062 51.566406 Z M 47.828125 53.015625 " fill-opacity="1" fill-rule="nonzero"/></g></svg>