<?xml version="1.0" encoding="utf-8"?>
<!-- Generator: Adobe Illustrator 25.4.1, SVG Export Plug-In . SVG Version: 6.00 Build 0)  -->
<svg version="1.1" id="Capa_1" xmlns="http://www.w3.org/2000/svg" xmlns:xlink="http://www.w3.org/1999/xlink" x="0px" y="0px"
	 viewBox="0 0 16 16" style="enable-background:new 0 0 16 16;" xml:space="preserve">
<style type="text/css">
	.st0{fill:#FFFFFF;}
</style>
<path class="st0" d="M14.3,0.5L14.3,0.5H8.8c-0.6,0-1.2,0.6-1.2,1.2s0.6,1.2,1.2,1.2l0,0h2.8L1,13.4c-0.4,0.4-0.4,1.2,0,1.6
	c0.4,0.4,1.2,0.4,1.6,0L13.2,4.4v2.8c0,0.6,0.6,1.2,1.2,1.2c0.6,0,1.2-0.6,1.2-1.2V1.7l0,0l0,0l0,0l0,0C15.5,1.1,14.9,0.5,14.3,0.5z
	"/>
</svg>
